<?xml version="1.0" standalone="no"?>
<!DOCTYPE svg PUBLIC "-//W3C//DTD SVG 20010904//EN"
 "http://www.w3.org/TR/2001/REC-SVG-20010904/DTD/svg10.dtd">
<svg version="1.0" xmlns="http://www.w3.org/2000/svg"
 width="109.000000pt" height="19.000000pt" viewBox="0 0 109.000000 19.000000"
 preserveAspectRatio="xMidYMid meet">

<g transform="translate(0.000000,19.000000) scale(0.100000,-0.100000)"
fill="#000000" stroke="none">
<path d="M35 128 c22 -34 35 -65 35 -85 0 -23 5 -33 15 -33 11 0 15 11 15 41
0 29 9 53 30 85 17 24 27 44 23 44 -5 0 -19 -18 -33 -40 -14 -22 -28 -40 -31
-40 -4 0 -18 18 -33 40 -14 22 -33 40 -41 40 -11 0 -6 -15 20 -52z"/>
<path d="M205 155 c-34 -33 -34 -87 0 -120 13 -14 31 -25 39 -25 11 0 8 7 -9
25 -47 46 -24 135 35 135 59 0 82 -89 35 -135 -17 -18 -20 -25 -9 -25 29 0 64
47 64 85 0 76 -100 115 -155 60z"/>
<path d="M400 112 c0 -80 15 -102 73 -102 55 0 67 19 65 103 l-2 72 -3 -70
c-4 -78 -14 -95 -52 -95 -41 0 -51 17 -51 92 0 54 -3 68 -15 68 -12 0 -15 -14
-15 -68z"/>
<path d="M590 95 l0 -85 46 0 c25 0 54 5 65 10 23 13 25 56 3 68 -11 6 -13 11
-5 16 18 12 13 54 -8 66 -11 5 -38 10 -60 10 l-41 0 0 -85z m86 61 c15 -12 17
-18 8 -33 -15 -24 -67 -24 -72 0 -9 44 25 61 64 33z m12 -98 c3 -22 -2 -29
-22 -34 -39 -9 -56 1 -56 36 0 30 2 31 38 28 32 -3 37 -7 40 -30z"/>
<path d="M760 112 c0 -80 15 -102 72 -102 54 0 68 23 66 106 l-1 69 -6 -70
c-7 -84 -13 -95 -51 -95 -41 0 -60 32 -60 102 0 32 -4 58 -10 58 -6 0 -10 -29
-10 -68z"/>
<path d="M930 172 c0 -5 13 -26 30 -48 20 -27 30 -51 30 -76 0 -27 4 -38 15
-38 11 0 15 11 15 38 0 21 6 46 13 57 8 11 22 34 32 50 16 28 15 28 -14 -5
-17 -19 -31 -38 -31 -42 0 -19 -19 -5 -44 32 -24 37 -46 52 -46 32z"/>
</g>
</svg>
